<svg width="164" height="40" viewBox="0 0 164 40" fill="none" xmlns="http://www.w3.org/2000/svg">
<path d="M32.9209 27.8928L33.3809 28.6135C34.147 29.8241 34.4692 30.8968 34.5918 32.6437C34.7297 34.4981 35.0209 35.2492 35.9404 36.0002C36.6148 36.5672 38.2542 37.2727 39.71 37.6252C40.844 37.9164 40.8294 37.8853 40.6455 39.2951L40.5381 40.0002H32.0166L31.9707 35.7394C31.9094 30.7895 31.9095 30.7588 30.3311 29.0578C29.8114 28.5076 29.3988 28.0182 29.3965 27.9699C29.3965 27.9239 30.1929 27.8928 31.1582 27.8928H32.9209ZM39.2969 0.000175476L40.8594 2.299L42.4385 4.59783H20.0938L18.5303 6.94256C17.6874 8.22991 16.9824 9.3337 16.9824 9.41033C16.9846 9.56652 19.4644 13.1789 19.5723 13.1799C19.6182 13.1799 20.3541 12.1377 21.1816 10.881L22.6992 8.58221H33.9014L45.1045 8.59783L46.6523 10.9269L48.2002 13.257L39.4346 26.3449L28.293 26.3605H17.1357L16.3076 27.4787C14.7137 29.6243 13.6871 30.2378 11.6182 30.2531C10.4996 30.2684 10.1932 30.2067 9.39648 29.839C8.89085 29.6092 8.20088 29.3493 7.83301 29.2726C6.42307 28.9508 4.79811 29.7163 2.71387 31.6779C2.14846 32.2127 1.64421 32.6412 1.5957 32.6437C1.50375 32.6437 0.399444 31.9385 0.000976562 31.632C-0.0759926 31.5463 4.28658 24.0723 4.39941 24.1232C8.49137 26.4067 10.7908 27.6013 11.2812 27.6779C12.3846 27.8465 13.1204 27.372 14.377 25.6711L15.4805 24.1838L11.8018 18.7131L8.12402 13.2414L12.5527 6.62127L16.998 0.000175476H39.2969Z" fill="white"/>
<path d="M70.9248 6.08709C70.9248 12.1399 70.9541 12.2876 71.707 10.9885C73.5082 7.91798 78.5713 7.32744 81.332 9.86639C82.5869 11.0179 83.3846 12.5239 83.7832 14.5021C84.0194 15.6684 84.0194 19.2854 83.7832 20.4074C82.9713 24.2752 80.8895 26.3416 77.4941 26.6369C75.0878 26.8288 72.7848 25.7516 71.707 23.9211C71.1903 23.0353 70.9248 23.0795 70.9248 24.0539C70.9248 24.4819 70.8802 25.1903 70.8359 25.6037L70.7324 26.3859H66.2002V0.550957H70.9248V6.08709ZM142.51 8.52361L142.569 14.2365C142.628 20.2303 142.658 20.5699 143.308 21.5295C144.518 23.3304 147.825 23.1236 149.124 21.175C149.39 20.7764 149.67 20.2153 149.759 19.9201C149.847 19.5948 149.906 17.1889 149.906 13.9416V8.52361H154.778V26.3869H150.246L150.143 25.8254C150.098 25.53 150.054 24.7918 150.054 24.2013C150.054 23.3459 150.01 23.1392 149.818 23.1388C149.7 23.1388 149.508 23.3604 149.39 23.6262C149.05 24.4527 148.032 25.4564 147.058 25.9435C143.869 27.5084 139.765 26.3122 138.51 23.4777C137.86 22.0016 137.816 21.3371 137.801 14.7531V8.52361H142.51ZM93.335 8.37518C94.457 8.16856 96.8632 8.31583 98.0146 8.6701C100.938 9.57064 102.916 11.7264 103.64 14.7971C103.979 16.288 103.949 18.9007 103.565 20.3771C102.798 23.315 100.982 25.2644 98.1914 26.1945C97.1289 26.5339 96.7449 26.5783 95.0625 26.5783C93.3797 26.5783 92.9952 26.534 91.9473 26.1945C89.1128 25.2497 87.2669 23.2859 86.4697 20.3185C86.1154 19.0046 86.1153 15.904 86.4844 14.5754C87.4293 11.121 89.7329 9.02473 93.335 8.37518ZM111.301 11.2541C112.275 12.7451 113.147 13.9846 113.221 13.9846C113.311 13.9808 114.167 12.7428 115.14 11.2541L116.911 8.52264H119.612C121.737 8.52264 122.299 8.56672 122.211 8.69939C122.152 8.80274 120.853 10.7077 119.317 12.9074C117.798 15.1203 116.544 17.0089 116.542 17.0998C116.542 17.1884 117.959 19.2703 119.687 21.7062C121.398 24.141 122.844 26.1922 122.86 26.2678C122.89 26.3268 121.665 26.3859 120.13 26.3859H117.339L115.287 23.3596C114.165 21.6913 113.161 20.3332 113.072 20.3332C112.993 20.3358 112.401 21.0824 111.619 22.1457L109.949 24.4543C109.167 25.5268 108.577 26.3052 108.511 26.3273C108.405 26.3715 107.196 26.3714 105.795 26.3566L103.271 26.3117L106.577 21.7795L109.898 17.2472L106.976 13.0695C105.366 10.7665 103.994 8.80273 103.935 8.69939C103.847 8.56667 104.438 8.52264 106.681 8.52264H109.529L111.301 11.2541ZM131.999 0.181816C132.899 -0.0395227 136.086 -0.0695543 136.442 0.151543C136.56 0.240121 136.62 0.801728 136.62 2.08611V3.88689L135.291 3.8283C132.619 3.6955 131.718 4.52203 131.512 7.25311L131.408 8.52264H136.029V12.3615H131.453V26.3859H126.729V12.3615L124.293 12.3312L121.857 12.2873L123.142 10.4123L124.44 8.53728L125.562 8.52264H126.685L126.773 6.85467C126.862 5.00944 127.171 3.91655 127.895 2.85369C128.795 1.55459 130.213 0.639486 131.999 0.181816ZM163.046 26.3859H158.322V0.550957H163.046V26.3859ZM75.959 12.2287C75.1028 12.0515 75.0876 12.0517 74.2168 12.214C73.331 12.3912 72.799 12.7014 72.1494 13.4543C71.3082 14.4137 71.0723 15.2847 71.0723 17.4396C71.0723 20.2739 71.6181 21.5588 73.168 22.3117C75.2937 23.3598 77.5827 22.6811 78.498 20.7326C79.4724 18.6806 79.3097 15.2847 78.1582 13.6017C77.6416 12.8637 76.9774 12.4502 75.959 12.2287ZM95.0625 12.214C93.1729 12.214 91.9914 13.0847 91.3418 14.9152C91.1351 15.5057 91.0762 16.1257 91.0762 17.6017C91.0762 19.4027 91.1054 19.5805 91.5039 20.4513C92.2273 22.0162 93.3201 22.7394 94.9883 22.7394C96.1397 22.7394 96.9219 22.4295 97.6748 21.7062C98.7525 20.6581 99.255 18.5761 98.9893 16.3469C98.7382 14.3688 97.9698 13.0996 96.6855 12.4943C96.2871 12.3173 95.756 12.2141 95.0625 12.214Z" fill="white"/>
</svg>
