<svg width="204" height="51" viewBox="0 0 204 51" fill="none" xmlns="http://www.w3.org/2000/svg">
<path d="M88.4197 7.62344C88.4197 15.2041 88.4566 15.3892 89.4012 13.7621C91.6609 9.9163 98.0136 9.17675 101.477 12.3568C103.052 13.799 104.052 15.6849 104.553 18.1625C104.849 19.6231 104.849 24.1524 104.553 25.558C103.534 30.4023 100.922 32.9909 96.6619 33.3607C93.6429 33.6011 90.7534 32.2519 89.4012 29.9594C88.7529 28.85 88.4197 28.9051 88.4197 30.1254C88.4197 30.6616 88.364 31.5491 88.3084 32.0668L88.1785 33.0463H82.492V0.68985H88.4197V7.62344ZM178.235 10.6742L178.309 17.8295C178.383 25.3356 178.42 25.7617 179.235 26.9633C180.754 29.219 184.903 28.9605 186.533 26.5199C186.866 26.0208 187.219 25.3185 187.33 24.9486C187.441 24.5419 187.514 21.5279 187.514 17.4604V10.6742H193.628V33.0473H187.941L187.811 32.3441C187.756 31.9743 187.7 31.0495 187.7 30.31C187.7 29.2383 187.645 28.9791 187.404 28.9789C187.256 28.9789 187.015 29.2565 186.867 29.5893C186.441 30.6247 185.163 31.8824 183.94 32.4926C179.94 34.4524 174.79 32.9545 173.216 29.4047C172.401 27.5557 172.345 26.7233 172.326 18.477V10.6742H178.235ZM116.537 10.4887C117.945 10.2299 120.963 10.4142 122.408 10.8578C126.075 11.9857 128.558 14.6858 129.466 18.5316C129.892 20.3992 129.854 23.672 129.373 25.5209C128.41 29.2001 126.131 31.6402 122.631 32.8051C121.297 33.2303 120.815 33.2865 118.704 33.2865C116.592 33.2865 116.111 33.2303 114.796 32.8051C111.239 31.6217 108.924 29.1631 107.924 25.4467C107.479 23.8012 107.479 19.9185 107.942 18.2543C109.128 13.9277 112.017 11.3022 116.537 10.4887ZM139.079 14.0951C140.3 15.9601 141.391 17.5121 141.486 17.516C141.597 17.516 142.672 15.9625 143.894 14.0951L146.117 10.6742H149.507C152.174 10.6742 152.877 10.7295 152.766 10.8959C152.692 11.0253 151.063 13.4106 149.137 16.1654C147.231 18.935 145.659 21.2992 145.654 21.4164C145.654 21.5274 147.432 24.1351 149.599 27.1859C151.747 30.2349 153.561 32.8035 153.582 32.8988C153.619 32.9728 152.081 33.0473 150.155 33.0473H146.654L144.08 29.2563C142.673 27.1687 141.415 25.469 141.302 25.4662C141.172 25.4662 139.894 27.1307 138.43 29.183C136.968 31.2163 135.69 32.9352 135.578 32.9731C135.448 33.0285 133.929 33.0287 132.17 33.0102L129.003 32.9545L133.151 27.2777L137.319 21.602L133.651 16.3695C131.632 13.4851 129.91 11.0253 129.836 10.8959C129.726 10.7297 130.467 10.6742 133.281 10.6742H136.856L139.079 14.0951ZM165.048 0.227936C166.178 -0.0493818 170.178 -0.0865092 170.623 0.190826C170.771 0.302089 170.846 1.00468 170.846 2.6127V4.86856L169.178 4.79434C165.825 4.62805 164.696 5.66394 164.436 9.08438L164.306 10.6742H170.104V15.4818H164.362V33.0473H158.435V15.4818L155.379 15.4447L152.322 15.3891L153.934 13.0414L155.564 10.6928L156.971 10.6742H158.38L158.49 8.58536C158.601 6.27425 158.991 4.90582 159.898 3.57462C161.028 1.94752 162.806 0.801118 165.048 0.227936ZM204.001 33.0473H198.073V0.68985H204.001V33.0473ZM94.7352 15.3148C93.6612 15.093 93.6423 15.0929 92.5496 15.2963C91.4384 15.5182 90.7718 15.9071 89.9568 16.85C88.9011 18.0518 88.6043 19.1427 88.6043 21.8422C88.6043 25.3921 89.2903 27.0008 91.2352 27.9438C93.9023 29.2562 96.7734 28.4058 97.9217 25.9652C99.1442 23.3952 98.9397 19.1424 97.4949 17.0346C96.8467 16.1102 96.0131 15.5922 94.7352 15.3148ZM118.704 15.2953C116.333 15.2953 114.851 16.3865 114.036 18.6791C113.777 19.4187 113.703 20.1955 113.703 22.0443C113.703 24.3 113.74 24.522 114.24 25.6127C115.148 27.5726 116.518 28.4789 118.611 28.4789C120.056 28.4789 121.038 28.0908 121.982 27.185C123.334 25.8722 123.964 23.2649 123.631 20.4731C123.316 17.9954 122.352 16.405 120.741 15.6469C120.241 15.4251 119.574 15.2953 118.704 15.2953Z" fill="url(#paint0_linear_1_78)"/>
<path d="M41.3047 34.9336L41.8818 35.8359C42.8432 37.3522 43.2475 38.6959 43.4014 40.8838C43.5744 43.2062 43.9392 44.1474 45.0928 45.0879C45.9388 45.7981 47.9966 46.6806 49.8232 47.1221C51.2462 47.4868 51.2268 47.449 50.9961 49.2148L50.8613 50.0977H40.1709L40.1133 44.7617C40.0364 38.5619 40.0362 38.5232 38.0557 36.3926C37.403 35.7028 36.8846 35.0897 36.8828 35.0303C36.8828 34.9727 37.8824 34.9336 39.0938 34.9336H41.3047ZM49.3037 0L51.2646 2.87891L53.2451 5.75879H25.21L23.249 8.69531C22.1925 10.3061 21.3083 11.6869 21.3066 11.7852C21.3066 11.9771 24.422 16.5068 24.5566 16.5068C24.6152 16.5055 25.5374 15.201 26.5752 13.6279L28.4795 10.749H42.5352L56.5908 10.7686L58.5332 13.6855L60.4756 16.6035L54.9756 24.7988L49.4766 32.9951L35.498 33.0146H21.499L20.4609 34.416C18.4613 37.103 17.1728 37.8704 14.5771 37.8896C13.1735 37.9088 12.7889 37.8318 11.7891 37.3711C11.1545 37.0832 10.2886 36.7571 9.82715 36.6611C8.05824 36.2583 6.02011 37.2182 3.40527 39.6748C2.69549 40.345 2.0622 40.8813 2.00195 40.8838C1.88659 40.8838 0.501938 40.0011 0.00195312 39.6172C-0.113418 39.5404 5.38591 30.1351 5.52051 30.2119C10.6545 33.0719 13.539 34.5691 14.1543 34.665C15.5386 34.876 16.4615 34.2808 18.0381 32.1504L19.4229 30.2891L14.8076 23.4365L10.1934 16.584L15.75 8.29199L21.3262 0H49.3037Z" fill="#FF4300"/>
<defs>
<linearGradient id="paint0_linear_1_78" x1="111.317" y1="16.6943" x2="204.001" y2="16.6943" gradientUnits="userSpaceOnUse">
<stop stop-color="#FF4300"/>
<stop offset="0.625" stop-color="#FF4300"/>
<stop offset="0.775624" stop-color="#F37F95"/>
<stop offset="1" stop-color="#AE8CFF"/>
</linearGradient>
</defs>
</svg>
