<svg width="512" height="512" viewBox="0 0 512 512" fill="none" xmlns="http://www.w3.org/2000/svg">
<path d="M473.655 88.276H38.345C17.167 88.276 0 105.443 0 126.621V200.092H512V126.621C512 105.443 494.833 88.276 473.655 88.276ZM0 385.379C0 406.556 17.167 423.724 38.345 423.724H473.655C494.832 423.724 512 406.557 512 385.379V311.908H0V385.379Z" fill="#41479B"/>
<path d="M0 200.09H512V311.9H0V200.09Z" fill="#F5F5F5"/>
<path d="M255.789 293.562C234.494 293.562 217.168 276.237 217.168 254.941C217.17 245.838 220.386 237.028 226.248 230.064L227.935 231.486C222.407 238.052 219.376 246.358 219.374 254.941C219.374 275.018 235.709 291.355 255.788 291.355L255.789 293.562Z" fill="#50AF69"/>
<path d="M241.662 282.159C241.18 282.982 240.941 284.112 240.837 285.259C240.396 284.936 239.927 284.651 239.437 284.408C239.437 284.408 238.678 287.082 239.271 289.007C239.271 289.007 237.258 289.256 235.41 291.11C235.41 291.11 236.047 291.561 237.14 292.029C235.305 293.461 234.739 294.877 234.739 294.877C245.569 300.292 250.759 292.739 250.985 292.399C248.332 284.831 241.662 282.159 241.662 282.159ZM250.985 292.402L251.007 292.457V292.37L250.985 292.402ZM231.66 274.941C230.953 275.459 230.339 276.324 229.83 277.253C229.576 276.819 229.285 276.408 228.96 276.024C228.96 276.024 227.342 278 227.139 279.841C227.139 279.841 225.351 279.316 223.116 280.202C223.116 280.202 223.488 280.814 224.238 281.61C222.168 282.146 221.173 283.133 221.173 283.133C228.322 291.658 235.46 287.188 235.774 286.985C236.307 279.631 231.66 274.941 231.66 274.941ZM235.775 286.984C235.774 287.003 235.775 287.019 235.773 287.038L235.805 286.965L235.775 286.984ZM225.455 265.504C224.683 265.666 223.857 266.151 223.096 266.724C223.048 266.273 222.961 265.828 222.837 265.392C222.837 265.392 220.776 266.416 219.927 267.853C219.927 267.853 218.654 266.758 216.489 266.659C216.489 266.659 216.567 267.3 216.89 268.231C214.991 267.904 213.808 268.346 213.808 268.346C216.521 277.998 224.04 276.971 224.375 276.921C227.533 271.08 225.455 265.504 225.455 265.504Z" fill="#50AF69"/>
<path d="M224.372 276.921C224.364 276.935 224.359 276.95 224.35 276.965L224.403 276.916C224.393 276.918 224.382 276.92 224.372 276.921ZM222.999 254.749C222.266 254.796 221.412 255.116 220.596 255.523C220.652 255.133 220.683 254.737 220.669 254.336C220.669 254.336 218.579 254.975 217.486 256.118C217.486 256.118 216.59 255.015 214.664 254.666C214.664 254.666 214.588 255.232 214.664 256.078C213.03 255.565 211.863 255.804 211.863 255.804C212.091 264.506 219.094 264.525 219.406 264.521C223.591 259.837 222.999 254.749 222.999 254.749ZM219.405 264.523L219.375 264.558L219.433 264.523H219.405ZM223.812 245.842C223.185 245.692 222.386 245.739 221.596 245.87C221.744 245.558 221.872 245.233 221.963 244.893C221.963 244.893 220.044 244.889 218.831 245.565C218.831 245.565 218.365 244.407 216.84 243.617C216.84 243.617 216.629 244.072 216.474 244.802C215.236 243.949 214.195 243.849 214.195 243.849C212.135 251.207 218.004 253.035 218.267 253.112C222.993 250.263 223.812 245.842 223.812 245.842ZM218.27 253.111L218.236 253.133L218.294 253.119L218.27 253.111ZM219.168 235.01C219.168 235.01 217.167 240.251 220.271 243.286C220.271 243.286 224.317 242.091 226.317 237.884L224.615 237.562L223.741 234.941L220.844 236.229L219.168 235.01ZM224.802 226.585C224.802 226.585 221.667 231.237 224.002 234.896C224.002 234.896 228.214 234.648 231.115 231.003L229.53 230.305L229.273 227.554L226.16 228.152L224.802 226.585ZM256.211 293.562V291.355C276.289 291.355 292.625 275.018 292.625 254.941C292.625 246.364 289.585 238.034 284.064 231.486L285.751 230.064C291.613 237.028 294.828 245.838 294.83 254.941C294.831 276.237 277.506 293.562 256.211 293.562Z" fill="#50AF69"/>
<path d="M270.338 282.159C270.82 282.982 271.059 284.112 271.163 285.259C271.604 284.936 272.073 284.651 272.563 284.408C272.563 284.408 273.322 287.082 272.728 289.007C272.728 289.007 274.741 289.256 276.589 291.11C276.589 291.11 275.952 291.561 274.859 292.029C276.694 293.461 277.26 294.877 277.26 294.877C266.43 300.292 261.24 292.739 261.014 292.399C263.668 284.831 270.338 282.159 270.338 282.159ZM261.015 292.402L260.993 292.457V292.37L261.015 292.402ZM280.339 274.941C281.046 275.459 281.66 276.324 282.168 277.253C282.421 276.829 282.703 276.414 283.038 276.024C283.038 276.024 284.656 278 284.859 279.841C284.859 279.841 286.647 279.316 288.882 280.202C288.882 280.202 288.51 280.814 287.76 281.61C289.83 282.146 290.825 283.133 290.825 283.133C283.676 291.658 276.538 287.188 276.224 286.985C275.692 279.631 280.339 274.941 280.339 274.941Z" fill="#50AF69"/>
<path d="M276.225 286.984C276.226 287.003 276.225 287.019 276.227 287.038L276.195 286.965L276.225 286.984ZM286.545 265.504C287.317 265.666 288.143 266.151 288.904 266.724C288.955 266.282 289.033 265.837 289.163 265.392C289.163 265.392 291.224 266.416 292.073 267.853C292.073 267.853 293.347 266.758 295.511 266.659C295.511 266.659 295.433 267.3 295.11 268.231C297.009 267.904 298.192 268.346 298.192 268.346C295.479 277.998 287.96 276.971 287.625 276.921C284.466 271.08 286.545 265.504 286.545 265.504Z" fill="#50AF69"/>
<path d="M287.628 276.921C287.636 276.935 287.641 276.95 287.65 276.965L287.597 276.916C287.607 276.918 287.618 276.92 287.628 276.921ZM289.001 254.749C289.734 254.796 290.587 255.116 291.404 255.523C291.344 255.13 291.32 254.733 291.332 254.336C291.332 254.336 293.422 254.975 294.515 256.118C294.515 256.118 295.411 255.015 297.337 254.666C297.289 255.135 297.289 255.609 297.337 256.078C298.971 255.565 300.138 255.804 300.138 255.804C299.91 264.506 292.907 264.525 292.595 264.521C288.409 259.837 289.001 254.749 289.001 254.749ZM292.595 264.523L292.625 264.558L292.566 264.523H292.595ZM288.186 245.842C288.813 245.692 289.612 245.739 290.403 245.87C290.251 245.556 290.128 245.229 290.036 244.893C290.036 244.893 291.955 244.889 293.168 245.565C293.168 245.565 293.634 244.407 295.159 243.617C295.159 243.617 295.37 244.072 295.525 244.802C296.763 243.949 297.804 243.849 297.804 243.849C299.864 251.207 293.995 253.035 293.732 253.112C289.007 250.263 288.186 245.842 288.186 245.842ZM293.73 253.111L293.764 253.133L293.706 253.119L293.73 253.111ZM292.832 235.01C292.832 235.01 294.833 240.251 291.729 243.286C291.729 243.286 287.683 242.091 285.683 237.884L287.385 237.562L288.259 234.941L291.156 236.229L292.832 235.01ZM287.198 226.585C287.198 226.585 290.333 231.237 287.998 234.896C287.998 234.896 283.786 234.648 280.885 231.003L282.47 230.305L282.727 227.554L285.84 228.152L287.198 226.585Z" fill="#50AF69"/>
<path d="M256 270.345L252.588 275.463C252.305 275.887 252.178 276.396 252.228 276.903C252.279 277.41 252.503 277.884 252.864 278.244L256 281.38L259.136 278.244C259.496 277.884 259.721 277.41 259.771 276.903C259.821 276.396 259.694 275.887 259.412 275.463L256 270.345Z" fill="#41479B"/>
<path d="M257.453 275.463L256 270.345L254.546 275.463C254.298 276.337 254.347 277.501 254.663 278.244L256 281.38L257.336 278.244C257.653 277.5 257.702 276.337 257.453 275.463Z" fill="#F5F5F5"/>
<path d="M256 224.552V210.759C256 210.759 250.759 218.299 251.586 229.333M232.494 224.599C224.912 241.055 232.689 254.595 234.321 257.144C234.365 257.212 245.148 239.768 245.148 239.768L232.494 224.599Z" fill="#41479B"/>
<path d="M240.477 247.314C239.281 243.589 239.108 239.239 240.544 234.248L235.852 228.624C231.997 239.012 233.592 246.682 237.451 252.185C238.398 250.663 239.45 248.969 240.477 247.314Z" fill="#F5F5F5"/>
<path d="M244.967 240.687C244.638 240.687 244.313 240.54 244.095 240.26L230.258 222.469C230.169 222.355 230.104 222.224 230.065 222.084C230.027 221.945 230.017 221.799 230.035 221.655C230.053 221.512 230.099 221.373 230.17 221.247C230.242 221.121 230.338 221.011 230.452 220.922C230.566 220.833 230.697 220.768 230.837 220.729C230.976 220.691 231.122 220.681 231.266 220.699C231.409 220.717 231.548 220.763 231.674 220.834C231.8 220.906 231.91 221.002 231.999 221.116L245.836 238.907C245.964 239.07 246.043 239.265 246.065 239.47C246.087 239.676 246.051 239.884 245.96 240.07C245.869 240.255 245.728 240.412 245.552 240.521C245.377 240.63 245.174 240.688 244.967 240.687Z" fill="#FFE15A"/>
<path d="M222.897 241.698C218.483 285.836 253.794 274.801 256 270.388L233.931 259.354L238.345 250.526L222.897 241.698Z" fill="#41479B"/>
<path d="M233.567 246.777L227.416 243.087C226.032 269.315 240.038 273.683 250.369 272.381C241.994 271.257 233.626 265.073 233.567 246.777Z" fill="#F5F5F5"/>
<path d="M238.343 251.627C238.143 251.627 237.941 251.573 237.759 251.459L220.105 240.427C219.982 240.35 219.876 240.25 219.792 240.132C219.708 240.014 219.648 239.881 219.615 239.74C219.583 239.599 219.578 239.453 219.602 239.31C219.626 239.167 219.678 239.031 219.755 238.908C219.831 238.785 219.931 238.678 220.049 238.593C220.167 238.508 220.301 238.448 220.442 238.416C220.584 238.383 220.73 238.379 220.873 238.403C221.016 238.427 221.153 238.48 221.276 238.557L238.93 249.589C239.134 249.716 239.291 249.905 239.377 250.129C239.463 250.353 239.474 250.599 239.407 250.83C239.341 251.061 239.201 251.263 239.009 251.407C238.817 251.551 238.583 251.628 238.343 251.627Z" fill="#FFE15A"/>
<path d="M279.506 224.555C287.088 241.011 279.311 254.551 277.679 257.1C277.636 257.168 266.852 239.724 266.852 239.724L279.506 224.555Z" fill="#41479B"/>
<path d="M271.523 247.27C272.719 243.545 272.892 239.195 271.456 234.204L276.148 228.58C280.003 238.968 278.408 246.639 274.549 252.142C273.539 250.519 272.531 248.895 271.523 247.27Z" fill="#F5F5F5"/>
<path d="M267.033 240.644C266.826 240.645 266.623 240.587 266.448 240.478C266.272 240.369 266.131 240.212 266.04 240.027C265.949 239.841 265.913 239.633 265.935 239.427C265.957 239.222 266.036 239.027 266.164 238.864L280.001 221.073C280.376 220.592 281.068 220.506 281.549 220.879C282.03 221.252 282.117 221.946 281.742 222.426L267.905 240.217C267.802 240.35 267.67 240.458 267.519 240.532C267.368 240.606 267.201 240.644 267.033 240.644Z" fill="#FFE15A"/>
<path d="M289.103 241.655C293.517 285.793 258.206 274.758 256 270.345L278.069 259.311L273.655 250.483L289.103 241.655Z" fill="#41479B"/>
<path d="M278.433 246.733L284.584 243.043C285.968 269.271 271.962 273.639 261.631 272.337C270.006 271.213 278.374 265.03 278.433 246.733Z" fill="#F5F5F5"/>
<path d="M273.657 251.584C273.417 251.585 273.183 251.507 272.992 251.363C272.8 251.219 272.66 251.017 272.594 250.786C272.527 250.556 272.538 250.31 272.624 250.086C272.71 249.862 272.866 249.672 273.07 249.545L290.724 238.513C290.847 238.436 290.984 238.383 291.127 238.359C291.27 238.335 291.416 238.339 291.558 238.372C291.699 238.404 291.833 238.465 291.951 238.549C292.069 238.634 292.169 238.741 292.245 238.864C292.322 238.987 292.374 239.123 292.398 239.266C292.422 239.409 292.417 239.555 292.385 239.696C292.352 239.837 292.292 239.97 292.208 240.088C292.124 240.206 292.018 240.306 291.895 240.383L274.241 251.415C274.066 251.526 273.864 251.584 273.657 251.584Z" fill="#FFE15A"/>
<path d="M256 252.688C260.875 252.688 264.828 248.736 264.828 243.86C264.828 238.984 260.875 235.032 256 235.032C251.124 235.032 247.172 238.984 247.172 243.86C247.172 248.736 251.124 252.688 256 252.688Z" fill="#FFE6E6"/>
<path d="M256 248.274C258.438 248.274 260.414 246.298 260.414 243.86C260.414 241.422 258.438 239.446 256 239.446C253.562 239.446 251.586 241.422 251.586 243.86C251.586 246.298 253.562 248.274 256 248.274Z" fill="#F5F5F5"/>
<path d="M256 258.207C255.39 258.207 254.897 257.714 254.897 257.104V243.863C254.897 243.57 255.013 243.29 255.22 243.083C255.427 242.876 255.707 242.76 256 242.76C256.293 242.76 256.573 242.876 256.78 243.083C256.987 243.29 257.103 243.57 257.103 243.863V257.104C257.103 257.714 256.61 258.207 256 258.207Z" fill="#FFE15A"/>
<path d="M286.161 270.161H227.034L233.931 257.037H278.253L286.161 270.161Z" fill="#5AA0E6"/>
<path d="M257.795 259.495H273.172L268.389 254.712C268.164 254.487 267.89 254.318 267.588 254.217L265.923 253.662C265.323 253.462 264.664 253.551 264.138 253.901L258.822 257.445L257.795 259.495Z" fill="#FFB750"/>
<path d="M252.566 260.322H270.919L265.21 254.613C264.941 254.344 264.614 254.142 264.253 254.022L262.266 253.36C261.912 253.242 261.537 253.207 261.167 253.256C260.798 253.306 260.445 253.439 260.135 253.646L253.789 257.877L252.566 260.322Z" fill="#FFC455"/>
<path d="M246.183 261.241H268.346L261.452 254.347C261.128 254.022 260.732 253.778 260.297 253.633L257.897 252.833C257.47 252.691 257.017 252.648 256.571 252.708C256.125 252.767 255.699 252.928 255.324 253.177L247.662 258.285L246.183 261.241Z" fill="#FFCD55"/>
<path d="M239.865 262.069H265.241L257.347 254.175C256.975 253.803 256.522 253.523 256.024 253.357L253.276 252.441C252.787 252.278 252.268 252.229 251.757 252.298C251.246 252.366 250.758 252.55 250.329 252.836L241.555 258.685L239.865 262.069Z" fill="#FFD25A"/>
<path d="M229.517 263.724H262.62L252.323 253.427C251.839 252.942 251.248 252.577 250.598 252.361L247.014 251.166C246.376 250.954 245.699 250.889 245.033 250.979C244.367 251.068 243.729 251.308 243.17 251.68L231.724 259.31L229.517 263.724Z" fill="#FFE15A"/>
<path d="M258.382 245.842H253.611L254.709 241.235H256.367C256.904 241.235 257.371 241.604 257.496 242.127L258.382 245.842Z" fill="#FF4B55"/>
<path d="M258.108 246.582H253.824C253.656 246.582 253.495 246.515 253.376 246.396C253.257 246.277 253.19 246.116 253.19 245.948V245.736C253.19 245.385 253.475 245.102 253.824 245.102H258.108C258.459 245.102 258.742 245.386 258.742 245.736V245.948C258.742 246.116 258.675 246.277 258.556 246.396C258.437 246.515 258.276 246.582 258.108 246.582ZM255.276 243.332L254.205 243.061C254.13 243.042 254.061 243.005 254.004 242.954C253.947 242.902 253.903 242.837 253.876 242.765C253.85 242.693 253.841 242.615 253.852 242.539C253.862 242.463 253.89 242.39 253.935 242.327L254.71 241.235L255.276 243.332Z" fill="#FF4B55"/>
<path d="M250.495 232.526L250.338 233.742C252.053 232.701 253.945 232.077 256 232.077C258.053 232.079 259.946 232.699 261.662 233.742L261.505 232.526C259.799 231.636 257.963 231.124 256 231.126C254.038 231.124 252.202 231.635 250.495 232.526Z" fill="#41479B"/>
<path d="M250.563 231.998L250.406 233.214C252.102 232.171 253.971 231.546 255.999 231.543C258.027 231.545 259.896 232.17 261.592 233.214L261.435 231.998C259.748 231.101 257.936 230.593 255.998 230.592C254.062 230.592 252.25 231.103 250.563 231.998Z" fill="#5AA0E6"/>
<path d="M250.626 231.509L250.469 232.725C252.148 231.679 253.996 231.049 255.999 231.05C258.003 231.05 259.85 231.679 261.529 232.725L261.372 231.509C259.704 230.613 257.913 230.098 255.998 230.098C254.087 230.097 252.296 230.612 250.626 231.509Z" fill="#9BC800"/>
<path d="M250.698 230.95L250.541 232.166C252.201 231.117 254.023 230.485 256 230.485C257.976 230.487 259.799 231.115 261.458 232.166L261.301 230.95C259.652 230.05 257.887 229.534 256 229.533C254.113 229.534 252.348 230.05 250.698 230.95Z" fill="#FFE14E"/>
<path d="M250.769 230.401L250.612 231.617C252.253 230.564 254.049 229.932 255.999 229.931C257.949 229.933 259.746 230.563 261.386 231.617L261.229 230.401C259.6 229.499 257.859 228.98 255.999 228.979C254.14 228.981 252.398 229.497 250.769 230.401Z" fill="#FFB14E"/>
<path d="M250.799 230.167L250.69 231.019C252.309 229.965 254.081 229.326 256.001 229.326C257.921 229.325 259.692 229.963 261.312 231.019L261.203 230.167C259.583 229.263 257.852 228.744 256.002 228.742C254.151 228.74 252.419 229.262 250.799 230.167Z" fill="#FF4B55"/>
<path d="M286.897 271.448H225.104C224.904 271.448 224.709 271.393 224.538 271.291C224.366 271.188 224.226 271.041 224.132 270.865C224.038 270.689 223.993 270.491 224.003 270.292C224.012 270.092 224.076 269.899 224.186 269.733L255.083 223.388C255.492 222.776 256.51 222.776 256.919 223.388L287.816 269.733C288.041 270.072 288.063 270.507 287.871 270.866C287.776 271.042 287.636 271.189 287.464 271.291C287.293 271.394 287.097 271.448 286.897 271.448ZM227.165 269.241H284.836L256 225.99L227.165 269.241ZM256 214.069C255.39 214.069 254.897 213.576 254.897 212.966V208.552C254.897 208.259 255.013 207.979 255.22 207.772C255.427 207.565 255.707 207.449 256 207.449C256.292 207.449 256.573 207.565 256.78 207.772C256.987 207.979 257.103 208.259 257.103 208.552V212.966C257.103 213.576 256.61 214.069 256 214.069Z" fill="#FFE15A"/>
<path d="M258.207 214.069H253.793C253.5 214.069 253.22 213.953 253.013 213.746C252.806 213.539 252.69 213.259 252.69 212.966C252.69 212.673 252.806 212.393 253.013 212.186C253.22 211.979 253.5 211.863 253.793 211.863H258.207C258.499 211.863 258.78 211.979 258.987 212.186C259.194 212.393 259.31 212.673 259.31 212.966C259.31 213.259 259.194 213.539 258.987 213.746C258.78 213.953 258.499 214.069 258.207 214.069Z" fill="#FFE15A"/>
<path d="M256 293.517C255.921 293.517 255.839 293.508 255.761 293.492C254.681 293.25 251.077 292.386 250.014 291.333C249.366 290.688 249 289.812 248.997 288.897C248.993 287.983 249.352 287.104 249.995 286.454C250.314 286.132 250.693 285.876 251.111 285.702C251.529 285.527 251.977 285.437 252.43 285.437H252.442C253.359 285.437 254.221 285.792 254.872 286.439C255.935 287.495 256.827 291.09 257.074 292.167C257.159 292.536 257.049 292.924 256.782 293.193C256.575 293.4 256.293 293.517 256 293.517ZM252.442 287.642C252.148 287.739 251.795 287.773 251.56 288.008C251.329 288.242 251.2 288.559 251.201 288.888C251.203 289.217 251.335 289.533 251.568 289.765C251.835 290.025 253.028 290.477 254.458 290.884C254.04 289.459 253.581 288.27 253.317 288.003L254.094 287.221L253.316 288.003C253.202 287.888 253.065 287.797 252.915 287.735C252.765 287.673 252.604 287.641 252.442 287.642Z" fill="#41479B"/>
<path d="M256 293.517C255.709 293.517 255.426 293.403 255.217 293.191C255.086 293.058 254.99 292.895 254.939 292.715C254.888 292.536 254.883 292.347 254.925 292.165C255.173 291.087 256.065 287.493 257.127 286.437C257.781 285.788 258.56 285.494 259.569 285.435C260.022 285.435 260.47 285.525 260.888 285.699C261.306 285.874 261.685 286.13 262.003 286.452C262.647 287.101 263.006 287.98 263.003 288.894C263 289.808 262.634 290.684 261.986 291.329C260.922 292.385 257.318 293.249 256.238 293.491C256.16 293.508 256.08 293.517 256 293.517ZM257.906 287.22L258.683 288.002C258.419 288.269 257.96 289.459 257.542 290.883C258.972 290.476 260.165 290.026 260.433 289.762C260.666 289.53 260.797 289.215 260.798 288.886C260.799 288.558 260.67 288.242 260.439 288.008C260.325 287.892 260.188 287.8 260.038 287.737C259.887 287.674 259.726 287.642 259.563 287.642H259.559C259.229 287.642 258.919 287.769 258.685 288.002L257.906 287.22Z" fill="#41479B"/>
<path d="M251.586 300.138C250.976 300.138 250.483 299.645 250.483 299.035C250.483 293.997 255.302 291.53 255.507 291.427C255.766 291.313 256.059 291.303 256.326 291.399C256.592 291.495 256.811 291.69 256.938 291.943C257.065 292.196 257.091 292.488 257.009 292.759C256.927 293.03 256.744 293.259 256.498 293.399C256.459 293.419 252.691 295.375 252.691 299.034C252.691 299.179 252.662 299.323 252.607 299.457C252.551 299.591 252.47 299.712 252.367 299.815C252.265 299.918 252.143 299.999 252.009 300.054C251.875 300.11 251.731 300.138 251.586 300.138Z" fill="#41479B"/>
<path d="M260.414 300.138C259.804 300.138 259.311 299.645 259.311 299.035C259.311 295.376 255.543 293.418 255.504 293.4C255.243 293.268 255.046 293.038 254.955 292.76C254.863 292.482 254.886 292.18 255.017 291.919C255.148 291.658 255.377 291.46 255.654 291.368C255.931 291.276 256.234 291.297 256.495 291.428C256.7 291.532 261.519 293.997 261.519 299.036C261.518 299.329 261.401 299.609 261.194 299.815C260.987 300.022 260.706 300.138 260.414 300.138Z" fill="#41479B"/>
</svg>
