<svg width="24" height="24" viewBox="0 0 24 24" fill="none" xmlns="http://www.w3.org/2000/svg">
<path d="M2 12.064C2 13.5245 2.184 14.575 2.597 15.47C2.64078 15.557 2.71664 15.6236 2.80858 15.6557C2.90052 15.6878 3.00133 15.683 3.08976 15.6422C3.17818 15.6014 3.24729 15.5278 3.2825 15.437C3.31772 15.3462 3.31628 15.2453 3.2785 15.1555C3.057 14.6755 2.9105 14.1335 2.8295 13.482C2.45294 12.612 2.2029 11.6925 2.087 10.7515C2.02967 11.1867 2.00061 11.6251 2 12.064Z" fill="#2E49CE"/>
<path d="M3.75793 17.548C3.74743 17.5963 3.7466 17.6463 3.75549 17.6949C3.76437 17.7436 3.7828 17.79 3.8097 17.8315C3.83661 17.8731 3.87146 17.9088 3.91226 17.9368C3.95305 17.9648 3.99897 17.9844 4.04739 17.9946C4.0958 18.0048 4.14575 18.0052 4.19435 17.996C4.24295 17.9868 4.28924 17.968 4.33056 17.9408C4.37188 17.9136 4.40741 17.8785 4.43511 17.8375C4.46281 17.7965 4.48212 17.7505 4.49193 17.702C4.60243 17.1765 4.65743 16.7185 4.67943 16.2965C4.41137 16.0078 4.16044 15.7036 3.92793 15.3855C3.96643 16.0105 3.94093 16.6795 3.75793 17.548Z" fill="#2E49CE"/>
<path d="M18.333 17.2375C18.3028 17.8972 18.255 18.5559 18.1895 19.213C18.1832 19.2627 18.1869 19.3131 18.2005 19.3613C18.214 19.4094 18.237 19.4544 18.2682 19.4936C18.2994 19.5327 18.3381 19.5652 18.382 19.5892C18.4259 19.6131 18.4742 19.6281 18.524 19.6331C18.5738 19.6381 18.6241 19.6331 18.6719 19.6183C18.7197 19.6036 18.7641 19.5794 18.8025 19.5473C18.8408 19.5151 18.8723 19.4756 18.8952 19.4311C18.918 19.3866 18.9317 19.3379 18.9355 19.288C19.0355 18.2875 19.0885 17.37 19.1085 16.53C18.8625 16.7785 18.604 17.015 18.333 17.2375Z" fill="#2E49CE"/>
<path d="M4.95544 18.8225C4.94034 18.8694 4.93462 18.9188 4.93861 18.9679C4.9426 19.0169 4.95622 19.0648 4.97869 19.1086C5.00116 19.1524 5.03205 19.1914 5.06958 19.2233C5.10711 19.2552 5.15056 19.2794 5.19744 19.2945C5.24433 19.3096 5.29372 19.3153 5.34281 19.3113C5.39191 19.3073 5.43973 19.2937 5.48356 19.2712C5.52739 19.2488 5.56637 19.2179 5.59826 19.1803C5.63015 19.1428 5.65434 19.0994 5.66944 19.0525C5.83081 18.557 5.96715 18.0537 6.07794 17.5445C5.85105 17.3777 5.63119 17.2015 5.41894 17.0165C5.32494 17.5395 5.17844 18.13 4.95544 18.8225Z" fill="#2E49CE"/>
<path d="M16.2035 20.5175C16.1867 20.5734 16.1833 20.6325 16.1934 20.69C16.2036 20.7476 16.227 20.8019 16.2619 20.8488C16.2968 20.8957 16.3421 20.9337 16.3943 20.96C16.4465 20.9862 16.5041 20.9999 16.5625 21C16.6431 20.9999 16.7216 20.9738 16.7863 20.9257C16.8509 20.8775 16.8984 20.8097 16.9215 20.7325C17.1945 19.822 17.367 18.844 17.468 17.8665C17.2045 18.039 16.933 18.2 16.653 18.3475C16.554 19.0935 16.4095 19.8295 16.2035 20.5175Z" fill="#2E49CE"/>
<path d="M14.1669 21.315C14.1508 21.3616 14.1441 21.4109 14.147 21.46C14.15 21.5092 14.1626 21.5573 14.1841 21.6016C14.2057 21.6459 14.2357 21.6855 14.2726 21.7182C14.3094 21.7508 14.3524 21.7759 14.3989 21.792C14.4455 21.8081 14.4948 21.8149 14.5439 21.8119C14.5931 21.809 14.6412 21.7964 14.6855 21.7748C14.7749 21.7313 14.8434 21.654 14.8759 21.56C15.1793 20.6704 15.4118 19.7583 15.5714 18.832C15.3049 18.934 15.0344 19.027 14.7574 19.1065C14.611 19.8553 14.4137 20.5931 14.1669 21.315Z" fill="#2E49CE"/>
<path d="M7.62753 20.5905C7.60506 20.6352 7.59178 20.684 7.58847 20.734C7.58516 20.7839 7.59188 20.834 7.60824 20.8813C7.62461 20.9287 7.65028 20.9722 7.68374 21.0094C7.71721 21.0467 7.75779 21.0768 7.80309 21.0981C7.8484 21.1194 7.89751 21.1314 7.94753 21.1335C7.99755 21.1355 8.04747 21.1275 8.09435 21.1099C8.14122 21.0923 8.1841 21.0655 8.22045 21.0311C8.25681 20.9967 8.2859 20.9553 8.30603 20.9095C8.59004 20.3075 8.82708 19.6845 9.01503 19.046C8.77403 18.9705 8.54003 18.8795 8.30703 18.787C8.12932 19.4054 7.90209 20.0085 7.62753 20.5905Z" fill="#2E49CE"/>
<path d="M9.09142 21.157C9.05285 21.2471 9.05108 21.3487 9.08649 21.4401C9.1219 21.5315 9.19167 21.6054 9.28087 21.6459C9.37007 21.6865 9.47161 21.6906 9.56376 21.6572C9.65591 21.6239 9.73135 21.5558 9.77392 21.4675C10.0819 20.7922 10.3398 20.0952 10.5454 19.382C10.2959 19.3471 10.0477 19.3029 9.80142 19.2495C9.61038 19.9014 9.37312 20.5389 9.09142 21.157Z" fill="#2E49CE"/>
<path d="M12.4534 21.4845C12.4217 21.5756 12.4262 21.6754 12.466 21.7632C12.5058 21.851 12.5779 21.9202 12.6673 21.9563C12.7568 21.9924 12.8566 21.9928 12.9463 21.9573C13.036 21.9217 13.1085 21.8531 13.1489 21.7655C13.4666 20.9712 13.7167 20.1514 13.8964 19.315C13.6334 19.3655 13.3674 19.4075 13.0974 19.437C12.9348 20.1348 12.7195 20.8193 12.4534 21.4845Z" fill="#2E49CE"/>
<path d="M11.5561 20.2695C11.5094 20.2538 11.4601 20.2475 11.4109 20.251C11.3618 20.2544 11.3138 20.2675 11.2697 20.2895C11.2256 20.3115 11.1863 20.342 11.1541 20.3793C11.1218 20.4165 11.0972 20.4597 11.0816 20.5065L10.7481 21.5065C10.7182 21.6004 10.7265 21.7024 10.7712 21.7903C10.8159 21.8782 10.8934 21.9449 10.987 21.9761C11.0805 22.0072 11.1826 22.0003 11.271 21.9568C11.3595 21.9132 11.4273 21.8366 11.4597 21.7435L11.7932 20.7435C11.8087 20.6968 11.815 20.6475 11.8115 20.5984C11.808 20.5493 11.7949 20.5014 11.7729 20.4574C11.7509 20.4134 11.7204 20.3741 11.6832 20.3419C11.646 20.3096 11.6029 20.285 11.5561 20.2695Z" fill="#2E49CE"/>
<path d="M7.26803 17.8215C7.18088 17.8026 7.08985 17.8161 7.01187 17.8593C6.93388 17.9025 6.87424 17.9726 6.84403 18.0565C6.83753 18.074 6.82603 18.0885 6.82153 18.1075L6.80903 18.16C6.67153 18.7155 6.21903 19.8495 6.21453 19.861C6.17993 19.9528 6.18268 20.0545 6.22219 20.1443C6.26171 20.2341 6.33484 20.3048 6.4259 20.3413C6.51696 20.3778 6.6187 20.3772 6.7093 20.3396C6.7999 20.3019 6.87214 20.2303 6.91053 20.14C6.92903 20.0935 7.34503 19.0495 7.51253 18.428L7.53703 18.3405L7.55403 18.268C7.5753 18.1708 7.55711 18.0692 7.50348 17.9855C7.44985 17.9018 7.36516 17.8428 7.26803 17.8215Z" fill="#2E49CE"/>
<path d="M20.7854 15.2985C20.7844 15.249 20.7734 15.2002 20.7532 15.1551C20.7329 15.1099 20.7037 15.0693 20.6674 15.0357C20.6311 15.002 20.5884 14.976 20.5418 14.9592C20.4953 14.9425 20.4458 14.9353 20.3964 14.938C20.3919 14.938 20.3879 14.941 20.3834 14.941C20.2868 14.9477 20.1966 14.9916 20.1317 15.0635C20.0669 15.1355 20.0325 15.2297 20.0359 15.3265C20.0374 15.36 20.0374 15.396 20.0389 15.4295C20.0534 15.8485 20.0624 16.287 20.0624 16.7495C20.0624 16.849 20.1019 16.9444 20.1722 17.0147C20.2425 17.085 20.3379 17.1245 20.4374 17.1245C20.5368 17.1245 20.6322 17.085 20.7025 17.0147C20.7729 16.9444 20.8124 16.849 20.8124 16.7495C20.8124 16.2405 20.8024 15.756 20.7854 15.2985Z" fill="#2E49CE"/>
<path d="M21.909 10.779C21.8454 10.2687 21.7429 9.76409 21.6025 9.26947C21.4742 9.71518 21.3149 10.1514 21.126 10.575C21.204 11.0615 21.2495 11.558 21.2495 12.064V12.125C21.2503 12.2097 21.2802 12.2916 21.3342 12.357C21.3881 12.4223 21.4629 12.4671 21.546 12.484C21.5725 12.49 21.597 12.5 21.625 12.5C21.7244 12.5 21.8198 12.4605 21.8901 12.3901C21.9605 12.3198 22 12.2244 22 12.125V12.064C22 11.6285 21.963 11.201 21.909 10.779Z" fill="#2E49CE"/>
<path d="M3.7865 10.292C3.59931 9.87278 3.44144 9.44107 3.314 9C3.305 9.019 3.2915 9.0345 3.2855 9.0555C3.15657 9.51955 3.06116 9.99227 3 10.47C3.12 11.4285 3.371 12.346 3.7425 13.2005C3.6867 12.7301 3.66031 12.2567 3.6635 11.783C3.6635 11.2815 3.708 10.7835 3.7865 10.292Z" fill="#2E49CE"/>
<path d="M19.9155 13.472C19.9273 13.5689 19.9764 13.6573 20.0523 13.7186C20.1283 13.7798 20.2251 13.809 20.3223 13.8001C20.4194 13.7911 20.5092 13.7446 20.5727 13.6705C20.6361 13.5963 20.6681 13.5004 20.662 13.403C20.6125 12.8673 20.5479 12.3331 20.4685 11.801C20.2738 12.1137 20.0618 12.4154 19.8335 12.7045C19.8625 12.946 19.89 13.2005 19.9155 13.472Z" fill="#2E49CE"/>
<path d="M4.54251 14.1055C4.49132 13.7408 4.44947 13.3748 4.41701 13.008C4.13139 12.676 3.86767 12.3257 3.62751 11.9595C3.62701 11.994 3.62451 12.028 3.62451 12.062C3.62451 12.9065 3.71301 13.5665 3.79901 14.205C3.85301 14.606 3.90301 14.987 3.92751 15.385C4.16051 15.704 4.41101 16.0075 4.67901 16.296C4.72351 15.4755 4.63651 14.8015 4.54251 14.1055Z" fill="#2E49CE"/>
<path d="M19.0404 13.5985C18.8144 13.8231 18.5776 14.0367 18.3309 14.2385C18.3759 15.0975 18.3854 16.097 18.3324 17.237C18.603 17.0148 18.8619 16.7786 19.1079 16.5295C19.1345 15.552 19.112 14.5738 19.0404 13.5985Z" fill="#2E49CE"/>
<path d="M6.27208 14.69C5.98274 14.4861 5.70435 14.2672 5.43808 14.034C5.55808 14.888 5.64708 15.7465 5.41858 17.0165C5.63058 17.202 5.85058 17.377 6.07758 17.5445C6.33558 16.3445 6.34258 15.4625 6.27208 14.69Z" fill="#2E49CE"/>
<path d="M17.5709 14.8045C17.3294 14.966 17.081 15.1169 16.8264 15.257C16.8433 16.2902 16.7855 17.3232 16.6534 18.348C16.9334 18.2005 17.2049 18.0395 17.4684 17.867C17.5774 16.815 17.6019 15.7675 17.5709 14.8045Z" fill="#2E49CE"/>
<path d="M7.12509 16.376C7.12509 16.583 7.29309 16.75 7.50009 16.75H7.50109C7.55034 16.7498 7.59907 16.74 7.64452 16.721C7.68997 16.7021 7.73123 16.6743 7.76596 16.6394C7.80069 16.6045 7.8282 16.5631 7.84693 16.5175C7.86565 16.472 7.87522 16.4232 7.87509 16.374C7.87447 16.1151 7.8713 15.8563 7.86559 15.5975C7.607 15.4809 7.35344 15.3534 7.10559 15.2155C7.11659 15.548 7.12359 15.928 7.12509 16.376Z" fill="#2E49CE"/>
<path d="M15.1139 15.999C15.0776 17.0425 14.9584 18.0814 14.7574 19.106C15.0326 19.0262 15.3042 18.9347 15.5714 18.8315C15.7464 17.834 15.8469 16.7955 15.8729 15.721C15.6259 15.825 15.3709 15.9145 15.1139 15.999Z" fill="#2E49CE"/>
<path d="M8.75137 15.95C8.72296 16.9107 8.57379 17.864 8.30737 18.7875C8.54037 18.88 8.77437 18.9715 9.01537 19.0465C9.32137 18.005 9.45487 17.043 9.49437 16.171C9.24401 16.1067 8.99617 16.033 8.75137 15.95Z" fill="#2E49CE"/>
<path d="M10.324 16.3485C10.2546 17.3315 10.0795 18.3041 9.80151 19.2495C10.046 19.3045 10.2945 19.3455 10.5455 19.382C10.85 18.3255 11.004 17.342 11.07 16.4525C10.8201 16.4276 10.5712 16.3929 10.324 16.3485Z" fill="#2E49CE"/>
<path d="M13.8345 17.0005C13.7853 16.9969 13.7357 17.0032 13.6889 17.0191C13.6421 17.0349 13.599 17.06 13.562 17.0928C13.5251 17.1256 13.495 17.1655 13.4738 17.2101C13.4525 17.2547 13.4403 17.3031 13.438 17.3525C13.437 17.3655 13.38 18.239 13.097 19.4365C13.367 19.407 13.633 19.365 13.896 19.3145C14.1335 18.2205 14.1835 17.4485 14.1865 17.3965C14.1923 17.2973 14.1584 17.1999 14.0925 17.1257C14.0265 17.0514 13.9337 17.0064 13.8345 17.0005Z" fill="#2E49CE"/>
<path d="M11.8854 16.494C11.8348 17.2895 11.7294 18.0806 11.5699 18.8615C11.5599 18.9098 11.5596 18.9595 11.5688 19.0079C11.578 19.0562 11.5967 19.1023 11.6237 19.1435C11.6508 19.1846 11.6857 19.2201 11.7264 19.2477C11.7671 19.2754 11.8129 19.2948 11.8612 19.3048C11.9094 19.3148 11.9591 19.3151 12.0075 19.3059C12.0559 19.2967 12.102 19.278 12.1431 19.251C12.1843 19.2239 12.2197 19.189 12.2474 19.1483C12.2751 19.1075 12.2944 19.0618 12.3044 19.0135C12.4884 18.1235 12.5909 17.2635 12.6419 16.4675C12.4289 16.481 12.2169 16.5 11.9999 16.5C11.9614 16.5 11.9239 16.4945 11.8854 16.494Z" fill="#2E49CE"/>
<path d="M21.1265 10.575C21.3145 10.154 21.474 9.71852 21.603 9.26952C21.4556 8.75105 21.2668 8.24525 21.0385 7.75702C20.901 8.0485 20.7495 8.33317 20.5845 8.61002C20.8362 9.2433 21.018 9.90222 21.1265 10.575Z" fill="#2E49CE"/>
<path d="M2.83365 9.07653C2.74887 9.05342 2.65864 9.06132 2.57917 9.09881C2.49971 9.1363 2.43622 9.20091 2.40015 9.28103C2.52865 9.72553 2.68665 10.1565 2.87265 10.573C2.92865 10.224 2.99915 9.87803 3.09365 9.53853C3.10703 9.49112 3.11091 9.44154 3.10508 9.39262C3.09924 9.34371 3.0838 9.29643 3.05964 9.2535C3.03548 9.21057 3.00308 9.17284 2.9643 9.14247C2.92552 9.1121 2.88111 9.08969 2.83365 9.07653Z" fill="#2E49CE"/>
<path d="M19.9779 9.51147C19.7959 9.75247 19.6039 9.98397 19.4014 10.2075C19.4909 10.568 19.6799 11.4195 19.8334 12.7045C20.0619 12.416 20.2724 12.1135 20.4684 11.801C20.3099 10.739 20.1439 10.07 20.0814 9.83997C20.0509 9.72797 20.0119 9.62097 19.9779 9.51147Z" fill="#2E49CE"/>
<path d="M4.60254 10.212C4.39832 9.98711 4.20446 9.75303 4.02154 9.5105C3.77089 10.3033 3.63847 11.1286 3.62854 11.96C3.86854 12.3275 4.13254 12.6765 4.41804 13.0085C4.38988 12.6939 4.37554 12.3783 4.37504 12.0625C4.37504 11.4325 4.45404 10.8115 4.60254 10.212Z" fill="#2E49CE"/>
<path d="M18.02 11.4715C18.141 12.1155 18.269 13.04 18.3315 14.2385C18.578 14.0365 18.8147 13.8229 19.041 13.5985C18.951 12.405 18.8005 11.5135 18.675 10.931C18.464 11.1205 18.246 11.3005 18.02 11.4715Z" fill="#2E49CE"/>
<path d="M6 12.0625C6 11.875 6.0115 11.6905 6.028 11.507C5.793 11.3315 5.5665 11.1465 5.348 10.9515C5.28514 11.3184 5.25237 11.6898 5.25 12.062C5.25 12.7185 5.3305 13.279 5.408 13.8205L5.438 14.0335C5.70417 14.2668 5.98256 14.4858 6.272 14.6895C6.241 14.35 6.1955 14.031 6.1505 13.7145C6.073 13.1755 6 12.6655 6 12.0625Z" fill="#2E49CE"/>
<path d="M16.603 12.372C16.7215 13.14 16.8115 14.1465 16.8265 15.257C17.0815 15.1165 17.3305 14.9665 17.571 14.8045C17.5355 13.702 17.43 12.7155 17.2975 11.9705C17.0715 12.1136 16.8398 12.2476 16.603 12.372Z" fill="#2E49CE"/>
<path d="M7.63849 12.488C7.37835 12.3615 7.12378 12.2239 6.87549 12.0755C6.87649 12.5515 6.91549 12.8985 6.96149 13.2985C7.01349 13.753 7.07499 14.293 7.10549 15.215C7.35313 15.3534 7.6067 15.4808 7.86549 15.597C7.84049 14.3935 7.76749 13.7445 7.70649 13.2125C7.6767 12.9717 7.65402 12.7301 7.63849 12.488Z" fill="#2E49CE"/>
<path d="M15.8749 14.4895C15.86 13.9132 15.8197 13.3378 15.7539 12.765C15.5159 12.8615 15.2754 12.952 15.0289 13.0305C15.0734 13.4505 15.1099 13.937 15.1259 14.5105C15.1386 15.0067 15.1349 15.5031 15.1149 15.999C15.3716 15.9167 15.6248 15.824 15.8739 15.721C15.8829 15.315 15.8864 14.9055 15.8749 14.4895Z" fill="#2E49CE"/>
<path d="M9.34415 13.1965L9.33665 13.13C9.0731 13.0569 8.81271 12.9728 8.55615 12.878C8.57015 13.01 8.58215 13.1365 8.59865 13.2805C8.68165 14.0155 8.78315 14.914 8.75115 15.9495C8.99465 16.033 9.24265 16.1055 9.49415 16.1705C9.54715 15.0095 9.43615 14.007 9.34415 13.1965Z" fill="#2E49CE"/>
<path d="M11.009 13.45C10.7524 13.4219 10.4968 13.384 10.243 13.3365C10.3265 14.1165 10.41 15.1405 10.324 16.349C10.5705 16.3905 10.8175 16.43 11.07 16.4535C11.1585 15.265 11.09 14.2475 11.009 13.45Z" fill="#2E49CE"/>
<path d="M13.5624 15.439C13.5628 15.5382 13.6025 15.6332 13.6728 15.7032C13.7431 15.7732 13.8382 15.8125 13.9374 15.8125H13.9389C13.9882 15.8123 14.0369 15.8024 14.0823 15.7834C14.1277 15.7643 14.169 15.7365 14.2037 15.7016C14.2383 15.6666 14.2658 15.6252 14.2845 15.5796C14.3031 15.534 14.3126 15.4852 14.3124 15.436C14.3042 14.708 14.2553 13.981 14.1659 13.2585C13.9224 13.3125 13.6744 13.3515 13.4249 13.3875C13.5009 14.017 13.5589 14.743 13.5624 15.439Z" fill="#2E49CE"/>
<path d="M12.611 13.469C12.408 13.4815 12.2065 13.5 12 13.5C11.952 13.5 11.9055 13.4935 11.8575 13.493C11.9422 14.4914 11.9517 15.4947 11.886 16.4945C11.924 16.4945 11.9615 16.5 12 16.5C12.217 16.5 12.429 16.481 12.642 16.4675C12.7056 15.4686 12.6953 14.4664 12.611 13.469Z" fill="#2E49CE"/>
<path d="M19.4926 6.60697C19.9371 7.22726 20.3039 7.89979 20.5846 8.60947C20.7491 8.33347 20.9006 8.04897 21.0386 7.75647C20.7457 7.13957 20.3909 6.55405 19.9796 6.00897C19.8246 6.21447 19.6631 6.41447 19.4926 6.60697Z" fill="#2E49CE"/>
<path d="M3.05959 7.55201L3.04409 7.58251C2.95159 7.76751 3.04209 7.96101 3.22709 8.05401C3.2729 8.07679 3.32343 8.08844 3.37459 8.08801C3.45153 8.08608 3.52655 8.06354 3.59181 8.02273C3.65707 7.98192 3.71017 7.92434 3.74559 7.85601C3.96809 7.41451 4.22509 6.99951 4.50659 6.60701C4.33696 6.41435 4.17484 6.2152 4.02059 6.01001C3.6557 6.49486 3.33413 7.01085 3.05959 7.55201Z" fill="#2E49CE"/>
<path d="M18.313 7.75202C18.817 8.5003 19.1853 9.3315 19.401 10.2075C19.6035 9.98402 19.7955 9.75252 19.9775 9.51152C19.7257 8.70626 19.3541 7.94353 18.875 7.24902C18.6942 7.42387 18.5067 7.59166 18.313 7.75202Z" fill="#2E49CE"/>
<path d="M5.68898 7.75349C5.49398 7.59449 5.30898 7.42349 5.12648 7.25049C4.6483 7.94478 4.2759 8.70626 4.02148 9.50999C4.20498 9.75299 4.39848 9.98649 4.60248 10.2115C4.81877 9.33514 5.18646 8.50331 5.68898 7.75349Z" fill="#2E49CE"/>
<path d="M17.6084 8.27948C17.4014 8.41998 17.1844 8.54648 16.9669 8.67148C17.3556 9.25176 17.6431 9.89367 17.8174 10.57C17.8674 10.7515 17.9419 11.0555 18.0199 11.4715C18.2459 11.3005 18.4639 11.1205 18.6749 10.9315C18.633 10.7344 18.5858 10.5385 18.5334 10.344C18.3424 9.60904 18.0297 8.91123 17.6084 8.27948Z" fill="#2E49CE"/>
<path d="M6.39114 8.2785C5.85768 9.08537 5.50214 9.99657 5.34814 10.9515C5.56664 11.1465 5.79314 11.3315 6.02814 11.507C6.11869 10.492 6.46346 9.51612 7.03064 8.6695C6.8125 8.54749 6.59917 8.41706 6.39114 8.2785Z" fill="#2E49CE"/>
<path d="M16.961 10.629C16.9289 10.5348 16.8607 10.4573 16.7715 10.4134C16.6822 10.3695 16.5792 10.3629 16.485 10.395C16.3909 10.4271 16.3133 10.4953 16.2694 10.5845C16.2255 10.6738 16.2189 10.7768 16.251 10.871C16.3525 11.1685 16.4385 11.4895 16.5075 11.8255C16.541 11.9885 16.5725 12.175 16.603 12.372C16.841 12.248 17.071 12.1125 17.2975 11.9705C17.2216 11.515 17.1091 11.0664 16.961 10.629Z" fill="#2E49CE"/>
<path d="M8.531 9.36902C8.2885 9.27902 8.0505 9.18202 7.8175 9.07452C7.20335 9.94981 6.87421 10.9933 6.875 12.0625L6.8755 12.0755C7.1235 12.224 7.3775 12.361 7.6385 12.488C7.62965 12.3464 7.62515 12.2045 7.625 12.0625C7.625 11.049 7.9655 10.117 8.531 9.36902Z" fill="#2E49CE"/>
<path d="M14.6175 9.64203C14.3215 9.72203 14.021 9.78953 13.715 9.84253C14.1775 10.1945 14.5365 10.68 14.707 11.2455C14.75 11.382 14.916 11.9685 15.028 13.0305C15.273 12.9515 15.5148 12.8629 15.753 12.765C15.639 11.7885 15.483 11.214 15.421 11.017C15.2636 10.5025 14.9885 10.0317 14.6175 9.64203Z" fill="#2E49CE"/>
<path d="M12 10.125C10.966 10.125 10.125 10.994 10.125 12.0625C10.125 12.2865 10.1585 12.5805 10.2005 12.953L10.243 13.336C10.496 13.381 10.7495 13.424 11.009 13.4495C10.9892 13.2555 10.9682 13.0617 10.946 12.868C10.9065 12.519 10.875 12.2435 10.875 12.062C10.875 11.407 11.3795 10.8745 12 10.8745C12.508 10.8745 12.817 11.0965 13.102 11.667C13.1795 11.822 13.3195 12.511 13.425 13.386C13.6745 13.3505 13.9225 13.311 14.166 13.257C14.0565 12.353 13.904 11.5925 13.773 11.331C13.514 10.814 13.0485 10.125 12 10.125Z" fill="#2E49CE"/>
<path d="M11.99 11.757C11.8925 11.7762 11.8066 11.8334 11.7512 11.9159C11.6958 11.9984 11.6754 12.0995 11.6945 12.197C11.697 12.209 11.789 12.6975 11.8575 13.4925C11.9055 13.4935 11.952 13.5 12 13.5C12.2065 13.5 12.408 13.4815 12.611 13.469C12.5395 12.632 12.4405 12.105 12.43 12.0525C12.4207 12.0041 12.4019 11.9581 12.3747 11.917C12.3474 11.8759 12.3124 11.8407 12.2715 11.8132C12.2306 11.7857 12.1847 11.7666 12.1364 11.757C12.088 11.7473 12.0383 11.7473 11.99 11.757Z" fill="#2E49CE"/>
<path d="M9.7995 9.76847C9.776 9.74997 9.749 9.74197 9.723 9.72947C9.68016 9.71231 9.63529 9.70072 9.5895 9.69497C9.52972 9.69006 9.46964 9.69973 9.41443 9.72316C9.35921 9.74658 9.31051 9.78307 9.2725 9.82947C8.77208 10.4662 8.50003 11.2526 8.5 12.0625C8.5 12.3 8.5255 12.5795 8.5565 12.8785C8.8125 12.9725 9.0715 13.057 9.337 13.1305C9.29 12.712 9.25 12.347 9.25 12.0625C9.25 11.4115 9.461 10.8005 9.861 10.295C9.92262 10.217 9.95075 10.1177 9.93922 10.019C9.92769 9.92027 9.87743 9.83016 9.7995 9.76847Z" fill="#2E49CE"/>
<path d="M19.4925 6.60701C19.6625 6.41401 19.8245 6.21451 19.9795 6.00901C19.4942 5.35974 18.9321 4.77163 18.3055 4.25751C18.105 4.42051 17.897 4.57451 17.684 4.72201C18.3726 5.26199 18.9815 5.8966 19.4925 6.60701Z" fill="#2E49CE"/>
<path d="M6.31298 4.72052C6.10057 4.57408 5.89392 4.41947 5.69348 4.25702C5.06757 4.77187 4.50617 5.36047 4.02148 6.01002C4.17648 6.21502 4.33748 6.41452 4.50748 6.60702C5.01687 5.8958 5.62479 5.26061 6.31298 4.72052Z" fill="#2E49CE"/>
<path d="M18.313 7.75202C18.508 7.59302 18.6925 7.42202 18.875 7.24902C18.3313 6.46523 17.6586 5.77933 16.8855 5.22052C16.639 5.35902 16.385 5.48402 16.126 5.60152C16.992 6.16418 17.7358 6.89557 18.313 7.75202Z" fill="#2E49CE"/>
<path d="M15.575 6.28301C15.4909 6.2299 15.3891 6.21239 15.2921 6.23433C15.195 6.25628 15.1107 6.31587 15.0575 6.40001C15.0044 6.48415 14.9869 6.58594 15.0089 6.68299C15.0308 6.78004 15.0904 6.8644 15.1745 6.91751C15.8886 7.36981 16.4993 7.96766 16.9665 8.67201C17.1845 8.54701 17.401 8.42051 17.608 8.28001C17.0799 7.47754 16.3868 6.79678 15.575 6.28301Z" fill="#2E49CE"/>
<path d="M6.39087 8.27851C6.59737 8.41851 6.81337 8.54501 7.03037 8.66951C7.76828 7.56803 8.84869 6.7405 10.1044 6.31501C9.70233 6.23777 9.30542 6.13592 8.91587 6.01001C7.89619 6.54088 7.02752 7.3213 6.39087 8.27851Z" fill="#2E49CE"/>
<path d="M16.0091 8.8305C15.0301 7.5875 13.5686 6.875 12.0001 6.875C10.2736 6.875 8.74713 7.746 7.81763 9.0745C8.05063 9.182 8.28863 9.2795 8.53113 9.369C9.33163 8.311 10.5866 7.625 12.0001 7.625C13.3376 7.625 14.5836 8.2335 15.4196 9.2945C15.4411 9.3215 15.4691 9.3395 15.4961 9.359C15.6291 9.456 15.8111 9.463 15.9466 9.357C16.0195 9.29877 16.0677 9.21521 16.0816 9.123C16.0907 9.07189 16.089 9.01943 16.0765 8.96903C16.064 8.91864 16.0411 8.87144 16.0091 8.8305Z" fill="#2E49CE"/>
<path d="M12 8.5C11.616 8.5 11.2385 8.563 10.88 8.6865L10.809 8.7115C10.7615 8.72739 10.7177 8.75263 10.6801 8.78573C10.6425 8.81883 10.612 8.85912 10.5902 8.90422C10.5685 8.94933 10.556 8.99833 10.5534 9.04834C10.5509 9.09835 10.5585 9.14836 10.5756 9.19541C10.5927 9.24246 10.6191 9.28561 10.6532 9.3223C10.6873 9.35899 10.7283 9.38849 10.774 9.40905C10.8197 9.42961 10.869 9.44082 10.919 9.44201C10.9691 9.4432 11.0189 9.43436 11.0655 9.416L11.1215 9.396C11.4043 9.29922 11.7011 9.24989 12 9.25C12.626 9.25 13.228 9.472 13.7155 9.8425C14.0192 9.78963 14.3204 9.72272 14.618 9.642C14.2824 9.28332 13.8771 8.997 13.4269 8.80062C12.9767 8.60424 12.4911 8.50194 12 8.5Z" fill="#2E49CE"/>
<path d="M7.65608 5.2805C7.59776 5.20003 7.50996 5.14591 7.41186 5.12998C7.31377 5.11406 7.21335 5.13761 7.13258 5.1955L7.10658 5.2155C6.3361 5.77666 5.66672 6.46481 5.12708 7.2505C5.30958 7.4235 5.49408 7.5945 5.68958 7.7535C6.19605 6.99697 6.83335 6.33681 7.57157 5.804C7.61537 5.77189 7.65153 5.7305 7.67746 5.68279C7.70339 5.63508 7.71845 5.58222 7.72157 5.528C7.72937 5.44038 7.70619 5.3528 7.65608 5.2805Z" fill="#2E49CE"/>
<path d="M13.3815 2.46798C13.3725 2.51641 13.3732 2.56612 13.3835 2.61429C13.3937 2.66246 13.4133 2.70814 13.4412 2.74872C13.4692 2.7893 13.5048 2.82398 13.5461 2.8508C13.5874 2.87761 13.6336 2.89602 13.682 2.90498C15.144 3.17686 16.5177 3.80067 17.6845 4.72248C17.8975 4.57498 18.1055 4.42098 18.306 4.25798C17.011 3.19297 15.467 2.47373 13.8185 2.16748C13.77 2.1581 13.7202 2.15846 13.6719 2.16854C13.6236 2.17862 13.5777 2.19821 13.5371 2.22618C13.4964 2.25415 13.4617 2.28993 13.435 2.33145C13.4083 2.37296 13.3901 2.41937 13.3815 2.46798Z" fill="#2E49CE"/>
<path d="M11.8799 2.75202C11.9793 2.75136 12.0744 2.71121 12.1443 2.64042C12.2142 2.56962 12.253 2.47398 12.2524 2.37452C12.2517 2.27507 12.2116 2.17995 12.1408 2.11009C12.07 2.04023 11.9743 2.00136 11.8749 2.00202H11.8699C9.61429 2.02907 7.43537 2.82451 5.69287 4.25702C5.89287 4.41952 6.10037 4.57302 6.31237 4.72052C7.90085 3.46927 9.85792 2.77731 11.8799 2.75202Z" fill="#2E49CE"/>
<path d="M11.9999 3.625C10.9369 3.625 9.90043 3.823 8.91943 4.214C8.827 4.25087 8.753 4.32294 8.71371 4.41436C8.67442 4.50578 8.67306 4.60907 8.70993 4.7015C8.74679 4.79393 8.81886 4.86793 8.91029 4.90721C9.00171 4.9465 9.105 4.94786 9.19743 4.911C10.0889 4.55524 11.0401 4.3733 11.9999 4.375C13.5009 4.375 14.9244 4.8205 16.1264 5.6015C16.3849 5.48545 16.6383 5.35834 16.8859 5.2205C15.4949 4.213 13.7999 3.625 11.9999 3.625Z" fill="#2E49CE"/>
<path d="M12 6C12.5161 5.99957 13.0301 6.0663 13.529 6.1985C13.625 6.22346 13.727 6.20939 13.8126 6.15937C13.8982 6.10935 13.9605 6.02744 13.9859 5.93158C14.0113 5.83571 13.9977 5.7337 13.9481 5.64785C13.8984 5.562 13.8168 5.49931 13.721 5.4735C13.1595 5.32471 12.581 5.24958 12 5.25C10.8885 5.25 9.84153 5.5275 8.91553 6.01C9.30203 6.1355 9.69853 6.2375 10.104 6.315C10.7146 6.10731 11.3551 6.00091 12 6Z" fill="#2E49CE"/>
</svg>
