<svg width="24" height="24" viewBox="0 0 24 24" fill="none" xmlns="http://www.w3.org/2000/svg">
<path d="M21.9333 6.76001L18.5633 20.29C18.3233 21.3 17.4233 22 16.3833 22H3.2433C1.7333 22 0.653319 20.5199 1.10332 19.0699L5.31331 5.55005C5.60331 4.61005 6.47333 3.95996 7.45333 3.95996H19.7533C20.7033 3.95996 21.4933 4.53997 21.8233 5.33997C22.0133 5.76997 22.0533 6.26001 21.9333 6.76001Z" stroke="#141F58" stroke-width="2" stroke-miterlimit="10"/>
<path d="M16.0034 22H20.7834C22.0734 22 23.0834 20.91 22.9934 19.62L22.0034 6" stroke="#141F58" stroke-width="2" stroke-miterlimit="10" stroke-linecap="round" stroke-linejoin="round"/>
<path d="M9.68335 6.38L10.7234 2.06006" stroke="#141F58" stroke-width="2" stroke-miterlimit="10" stroke-linecap="round" stroke-linejoin="round"/>
<path d="M16.3833 6.39001L17.3233 2.05005" stroke="#141F58" stroke-width="2" stroke-miterlimit="10" stroke-linecap="round" stroke-linejoin="round"/>
<path d="M7.70337 12H15.7034" stroke="#141F58" stroke-width="2" stroke-miterlimit="10" stroke-linecap="round" stroke-linejoin="round"/>
<path d="M6.70337 16H14.7034" stroke="#141F58" stroke-width="2" stroke-miterlimit="10" stroke-linecap="round" stroke-linejoin="round"/>
</svg>
